<svg xmlns="http://www.w3.org/2000/svg" xml:space="preserve" width="1500" height="435" data-id="lg_5dYoL99hJhxeDK8YC0" data-version="1" viewBox="0 0 1500 435"><g data-padding="20"><g transform="translate(10 5.902)scale(.97286)"><rect width="560" height="215.83" x="80.642" y="-300.832" fill="none" rx="0" ry="0" transform="translate(400.5 471.13)"/><path fill="#2a6c27" d="M536.382 338.223h-22.47l-27.33-164.14h18.37l10.92 69.48 9.32 61.08h.37l8.12-61.08 9.42-69.48h18.18Zm71.07 1.67q-10.07 0-16.18-3.49-6.11-3.5-9.28-9.94-3.17-6.43-4.25-15.43-1.07-9-1.07-19.91v-49.43q0-9.89 1.4-18.14t4.85-14.27q3.45-6.01 9.61-9.32 6.15-3.32 15.66-3.32 9.61 0 15.49 3.36 5.87 3.36 8.9 9.47t4.06 14.55 1.03 18.51v26.39h-41.79v27.89q0 13.24 1.82 20.19t9.93 6.95q5.32 0 7.61-3.31 2.28-3.31 2.79-9.33.52-6.02.52-14.22v-11.29h18.74v5.97q0 10.91-.88 19.77-.89 8.86-3.78 15.2-2.89 6.35-8.91 9.75-6.01 3.4-16.27 3.4m-11.66-101.09v17.16h22.76v-17.81q0-8.4-.56-14.13-.56-5.74-2.71-8.68-2.14-2.93-7.09-2.93-5.5 0-8.16 3.35-2.65 3.36-3.45 9.28-.79 5.92-.79 13.76m84.39 99.42h-19.21v-139.9h19.21v15.58q2.43-8.12 8.44-12.69 6.02-4.57 15.34-4.57.19 0 .24 2.48.04 2.47.04 5.64v8.11q-4.47 0-8.95 1.07-4.48 1.08-8.39 3.64-3.92 2.57-6.72 6.95Zm62.31 1.2q-10.35 0-15.43-6.06-5.09-6.07-6.72-16.46-1.63-10.4-1.63-23.46v-52.88q0-12.5 2.28-22.43 2.29-9.93 8.12-15.71 5.83-5.79 16.27-5.79 5.5 0 9.84 3.18 4.34 3.17 6.58 7.83v-35.35h19.21v165.92h-19.21v-11.76q-2.8 6.91-7.93 9.94t-11.38 3.03m6.62-15.58q4.39 0 7.23-2.19 2.85-2.19 4.2-8.16t1.35-17.07v-56.14q0-13.62-2.29-20.61-2.28-6.99-10.02-6.99-7 .09-9.33 6.85t-2.33 21.22v56.51q0 8.12.79 14.09.8 5.97 3.22 9.23 2.43 3.26 7.18 3.26m87.95 16.05q-10.07 0-16.18-3.49-6.11-3.5-9.28-9.94-3.17-6.43-4.25-15.43-1.07-9-1.07-19.91v-49.43q0-9.89 1.4-18.14t4.85-14.27q3.45-6.01 9.61-9.32 6.15-3.32 15.66-3.32 9.61 0 15.49 3.36 5.87 3.36 8.9 9.47t4.06 14.55 1.03 18.51v26.39h-41.79v27.89q0 13.24 1.82 20.19t9.94 6.95q5.31 0 7.6-3.31 2.28-3.31 2.79-9.33.52-6.02.52-14.22v-11.29h18.74v5.97q0 10.91-.88 19.77-.89 8.86-3.78 15.2-2.89 6.35-8.91 9.75-6.01 3.4-16.27 3.4m-11.66-101.09v17.16h22.76v-17.81q0-8.4-.56-14.13-.56-5.74-2.71-8.68-2.14-2.93-7.09-2.93-5.5 0-8.16 3.35-2.65 3.36-3.45 9.28-.79 5.92-.79 13.76m94.29 101.09q-10.17 0-16.37-3.45t-9.42-9.93-4.33-15.48q-1.12-9-1.12-20v-46.82q0-13.99 2.33-24.72 2.33-10.72 9.14-16.78 6.81-6.07 20.23-6.07 9.33 0 15.07 3.08 5.73 3.08 8.76 8.86t4.11 13.8q1.07 8.03 1.07 17.82v9.7h-18.84v-12.31q0-8.02-.51-13.48-.52-5.46-2.66-8.25-2.15-2.8-7.18-2.8-5.32 0-7.93 3.03t-3.5 8.67q-.88 5.65-.88 13.39v59.5q0 8.67.74 14.41.75 5.73 3.27 8.58 2.52 2.84 7.74 2.84 5.04 0 7.32-3.03t2.94-8.77q.65-5.73.65-13.66v-13.52h18.84v9.04q0 10.36-1.03 18.84-1.02 8.49-4.05 14.64-3.03 6.16-8.91 9.52-5.88 3.35-15.48 3.35m72.09-1.67h-19.12v-165.92h19.12v92.52l27.51-66.5h19.31l-29.47 69.11 31.05 70.79h-19.68l-28.72-68.09Z"/><rect width="736.804" height="24.86" x="-7.76" y="-205.347" fill="none" rx="0" ry="0" transform="translate(400 615.54)"/><path fill="#2a6c27" d="M406.352 429.533h-1.5v-15.4h1.5Zm13.87 0h-1.5l.55-15.71h.27l11.06 13.38h.14l-.49-13.07h1.5l-.55 15.71h-.27l-11.06-13.38h-.13Zm25.08 0h-1.5l.55-15.71h.27l11.06 13.38h.14l-.49-13.07h1.5l-.55 15.71h-.27l-11.06-13.38h-.13Zm22.82-7.7q0-1.69.61-3.16.6-1.46 1.69-2.55t2.56-1.69q1.46-.61 3.15-.61 1.7 0 3.16.61 1.46.6 2.55 1.69t1.7 2.55q.6 1.47.6 3.16 0 1.7-.6 3.16-.61 1.46-1.7 2.55t-2.55 1.69q-1.46.61-3.16.61-1.69 0-3.15-.61-1.47-.6-2.56-1.69t-1.69-2.55q-.61-1.46-.61-3.16m1.68 0q0 2.25.79 3.93t2.22 2.62q1.43.93 3.32.93t3.32-.93q1.43-.94 2.23-2.63.79-1.7.79-3.92t-.79-3.9q-.8-1.69-2.23-2.63-1.43-.95-3.32-.95t-3.31.94q-1.42.93-2.22 2.61-.8 1.69-.8 3.93m30.8 8.02-7-15.71h1.65l6.01 13.69h.13l5.04-13.69h1.65l-7 15.71Zm17.22-.32h-1.6l5.91-15.4h1.37l5.92 15.4h-1.61l-2.73-7.21h-4.99Zm4.6-14.25h-.13l-2.05 6.51h4.64Zm22.56 14.25h-1.49v-14.96q-.33 0-1.37.13l-4.31.55v-1.12h12.85v1.12l-4.31-.55q-1.04-.13-1.37-.13Zm17.73 0h-1.49v-15.4h1.49Zm11.63-7.7q0-1.69.61-3.16.6-1.46 1.69-2.55t2.55-1.69q1.46-.61 3.16-.61 1.69 0 3.16.61 1.46.6 2.55 1.69t1.69 2.55q.61 1.47.61 3.16 0 1.7-.61 3.16-.6 1.46-1.69 2.55t-2.55 1.69q-1.47.61-3.16.61-1.7 0-3.16-.61-1.46-.6-2.55-1.69t-1.69-2.55q-.61-1.46-.61-3.16m1.67 0q0 2.25.79 3.93.8 1.68 2.23 2.62 1.43.93 3.32.93t3.32-.93q1.43-.94 2.22-2.63.79-1.7.79-3.92t-.79-3.9q-.79-1.69-2.22-2.63-1.43-.95-3.32-.95t-3.31.94q-1.42.93-2.22 2.61-.81 1.69-.81 3.93m27.13 7.7h-1.5l.55-15.71h.27l11.06 13.38h.13l-.48-13.07h1.5l-.55 15.71h-.27l-11.06-13.38h-.14Zm22.8-.91q0-.51.33-.83t.82-.32q.5 0 .82.32t.32.83q0 .48-.32.81t-.82.33q-.49 0-.82-.33t-.33-.81m26.85.91v-15.4h2.95q2.33 0 3.62.98t1.29 2.74q0 1.36-.81 2.27-.8.9-2.32 1.21v.13q1.45.28 2.38 1.36.92 1.08 1.38 2.66.42 1.46.83 2.26t.9 1.15q.5.36 1.18.51v.13h-.9q-.97 0-1.6-.35t-1.07-1.19q-.44-.83-.83-2.31-.64-2.26-1.7-3.21-1.05-.95-2.57-.95h-.13v-.39h.13q3.54 0 3.54-3.26 0-3.21-3.32-3.21h-1.45v14.87Zm27.9 0h-6.78v-15.4h6.71v1.08l-3.85-.51q-1.01-.13-1.36-.13v6.71q.28 0 1.36-.06l3.61-.22v1.01l-3.61-.22q-1.08-.07-1.36-.07v7.37q.39 0 1.38-.13l3.9-.51Zm12.77 0h-1.5l.55-15.71h.27l11.06 13.38h.14l-.49-13.07h1.5l-.55 15.71h-.27l-11.06-13.38h-.13Zm30.7 0h-6.78v-15.4h6.71v1.08l-3.85-.51q-1.01-.13-1.36-.13v6.71q.29 0 1.36-.06l3.61-.22v1.01l-3.61-.22q-1.07-.07-1.36-.07v7.37q.4 0 1.39-.13l3.89-.51Zm15.79.32-6.34-15.71h1.61l5.39 13.47h.13l3.52-8.72-1.92-4.75h1.61l5.37 13.42h.13l4.44-13.42h1.61l-6.34 15.71h-.48l-4.11-10.23-4.14 10.23Zm25.31-.32h-1.61l5.92-15.4h1.36l5.92 15.4h-1.61l-2.72-7.21h-5Zm4.59-14.25h-.13l-2.04 6.51h4.64Zm21.11 14.25h-3.56v-15.4h3.06q2.37 0 3.69.99t1.32 2.75q0 1.3-.77 2.21-.77.92-2.15 1.25v.13q1.89.24 2.96 1.31 1.06 1.06 1.06 2.69 0 1.92-1.47 2.99-1.47 1.08-4.14 1.08m-.48-14.87h-1.58v6.6h1.56q3.47 0 3.47-3.3t-3.45-3.3m.48 7.13h-2.06v7.21h2.06q4.03 0 4.03-3.6 0-3.61-4.03-3.61m17.02 7.74v-15.4h1.5v14.96q.41 0 1.32-.13l3.65-.55v1.12Zm23.9 0h-6.77v-15.4h6.71v1.08l-3.85-.51q-1.01-.13-1.37-.13v6.71q.29 0 1.37-.06l3.61-.22v1.01l-3.61-.22q-1.08-.07-1.37-.07v7.37q.4 0 1.39-.13l3.89-.51Zm10.53-.91q0-.51.33-.83t.81-.32q.51 0 .83.32t.32.83q0 .48-.32.81t-.83.33q-.48 0-.81-.33t-.33-.81m33.62.91h-6.78v-15.4h6.71v1.08l-3.85-.51q-1.01-.13-1.36-.13v6.71q.28 0 1.36-.06l3.61-.22v1.01l-3.61-.22q-1.08-.07-1.36-.07v7.37q.39 0 1.38-.13l3.9-.51Zm24.52-15.4h1.58v15.4h-1.5v-14.12h-.13l-5.32 10.21h-.68l-6.05-9h-.14l.49 12.91h-1.5l.55-15.71h.44l6.93 10.3h.13Zm15.8 15.4h-1.49v-15.4h2.75q2.66 0 4.13 1.13 1.48 1.14 1.48 3.16 0 2.03-1.48 3.16-1.47 1.13-4.13 1.13h-1.26Zm1.26-14.87h-1.26v7.52h1.26q4.02 0 4.02-3.76t-4.02-3.76m15.68 7.17q0-1.69.61-3.16.6-1.46 1.69-2.55t2.55-1.69q1.47-.61 3.16-.61t3.16.61q1.46.6 2.55 1.69t1.69 2.55q.61 1.47.61 3.16 0 1.7-.61 3.16-.6 1.46-1.69 2.55t-2.55 1.69q-1.47.61-3.16.61t-3.16-.61q-1.46-.6-2.55-1.69t-1.69-2.55q-.61-1.46-.61-3.16m1.67 0q0 2.25.8 3.93.79 1.68 2.22 2.62 1.43.93 3.32.93t3.32-.93q1.43-.94 2.22-2.63.8-1.7.8-3.92t-.8-3.9q-.79-1.69-2.22-2.63-1.43-.95-3.32-.95t-3.31.94q-1.42.93-2.22 2.61-.81 1.69-.81 3.93m30.13 8.02-6.33-15.71h1.6l5.39 13.47h.14l3.52-8.72-1.92-4.75h1.61l5.37 13.42h.13l4.44-13.42h1.61l-6.34 15.71h-.48l-4.12-10.23-4.13 10.23Zm32.76-.32h-6.77v-15.4h6.71v1.08l-3.85-.51q-1.02-.13-1.37-.13v6.71q.29 0 1.37-.06l3.6-.22v1.01l-3.6-.22q-1.08-.07-1.37-.07v7.37q.4 0 1.39-.13l3.89-.51Zm11.62 0v-15.4h2.95q2.33 0 3.62.98 1.28.98 1.28 2.74 0 1.36-.8 2.27-.8.9-2.32 1.21v.13q1.45.28 2.37 1.36.93 1.08 1.39 2.66.42 1.46.83 2.26.4.8.9 1.15.49.36 1.17.51v.13h-.9q-.97 0-1.59-.35-.63-.35-1.07-1.19-.44-.83-.84-2.31-.63-2.26-1.69-3.21t-2.57-.95h-.14v-.39h.14q3.54 0 3.54-3.26 0-3.21-3.32-3.21h-1.46v14.87Zm34.03-15.4h1.59v15.4h-1.5v-14.12h-.13l-5.33 10.21h-.68l-6.05-9h-.13l.48 12.91h-1.49l.55-15.71h.44l6.93 10.3h.13Zm21.09 15.4h-6.78v-15.4h6.71v1.08l-3.85-.51q-1.01-.13-1.36-.13v6.71q.28 0 1.36-.06l3.61-.22v1.01l-3.61-.22q-1.08-.07-1.36-.07v7.37q.39 0 1.38-.13l3.9-.51Zm12.77 0h-1.5l.55-15.71h.27l11.06 13.38h.14l-.49-13.07h1.5l-.55 15.71h-.27l-11.06-13.38h-.13Zm28.94 0h-1.5v-14.96q-.33 0-1.36.13l-4.31.55v-1.12h12.85v1.12l-4.32-.55q-1.03-.13-1.36-.13Zm15.14-.91q0-.51.33-.83t.81-.32q.51 0 .83.32.31.32.31.83 0 .48-.31.81-.32.33-.83.33-.48 0-.81-.33t-.33-.81M727.374 32.043l10.742-3.93-4.061-4.061-20.043 7.99 20.043 8.123 4.06-4.061Zm8.253-22.532 10.218 4.716V8.594L726.064-.052l8.515 19.78h5.633Zm0 45.195 4.585-10.35h-5.633l-8.515 19.782 19.78-8.515V49.99Zm58.426-22.663-10.742 4.06 4.06 4.062 20.044-8.122-20.043-7.991-4.061 4.06Zm-8.122 22.663-10.35-4.716v5.633l19.782 8.515-8.515-19.781h-5.633Zm0-45.195-4.716 10.218h5.633l8.515-19.781-19.781 8.646v5.633Zm-33.536 14.54 8.646-4.977c1.572-.917 2.096-2.882 1.179-4.585-.917-1.572-2.882-2.096-4.585-1.18l-8.646 4.979c-1.572.917-2.096 2.882-1.18 4.585s3.014 2.096 4.586 1.179m-4.585 10.61c.917 1.573 2.882 2.097 4.585 1.18l20.174-11.66c1.572-.916 2.096-2.881 1.179-4.584-.917-1.572-2.882-2.096-4.585-1.18l-20.174 11.66c-1.441.917-1.965 2.882-1.18 4.585m25.939 7.99c-.917-1.571-2.882-2.095-4.585-1.178l-4.061 2.227v9.17h-5.764V50.12c0-.262-.131-.524-.262-.786l-2.49-4.585 15.852-9.17c1.572-.917 2.096-2.882 1.179-4.585-.917-1.572-2.882-2.096-4.585-1.18l-20.174 11.66c-1.572.917-2.096 2.882-1.18 4.585.787 1.44 2.62 1.965 4.324 1.31l2.096 3.93v14.803c0 2.096 1.572 3.93 3.668 4.192.917 1.31 2.62 2.227 4.716 2.227 1.965 0 3.668-.917 4.716-2.227 1.965-.262 3.799-1.965 3.799-4.192V48.156l1.572-.917c1.572-1.048 2.096-3.013 1.179-4.585m-6.157 24.104h-9.956v-2.62h9.956Zm0-4.061h-9.956v-2.62h9.956Zm0-4.061h-9.956v-2.62h9.956Z"/><path fill="#2a6c27" d="M711.523 74.749c2.75-6.288 9.039-4.192 9.039-4.192s43.885 13.1 47.684 14.803c2.227 1.048 3.799 3.406 3.799 5.764 0 2.62-.786 4.192-2.751 5.633-2.096 1.44-4.192 1.703-7.074.786-1.18-.393-8.122-2.62-15.327-4.847-10.742-3.406-13.362-4.061-14.017-3.668-1.18.655-1.441 1.572-.917 2.62.262.524 6.419 2.62 16.375 5.895 17.947 5.764 18.602 5.895 22.794 3.406a10.48 10.48 0 0 0 4.978-11.79c-.524-2.227-.524-2.358.393-2.751.524-.262 8.122-3.406 16.768-7.074 17.292-7.467 17.554-7.467 20.436-5.764 3.013 1.703 4.192 6.812 2.62 8.908-.917 1.179-28.82 17.685-28.82 17.685s-25.283 16.637-29.868 16.506c-4.323 0-48.208-17.554-48.208-17.554s-6.943-2.358-4.454-8.646c2.358-5.764 4.06-9.956 6.55-15.72"/></g><path fill="transparent" stroke="transparent" d="M381.5 0h737v435h-737z"/></g></svg>